<svg width="520" height="158" viewBox="0 0 520 158" fill="none" xmlns="http://www.w3.org/2000/svg">
<path d="M447 20C447 8.95431 438.046 0 427 0H20C8.95428 0 0 8.9543 0 20V124H427C438.046 124 447 115.046 447 104V20Z" fill="#656DF1"/>
<path d="M118 106C118 94.9543 126.954 86 138 86H500C511.046 86 520 94.9543 520 106V158H138C126.954 158 118 149.046 118 138V106Z" fill="#C0CAFF"/>
<path d="M37.496 49V33.6H40.312V40.002H47.22V33.6H50.036V49H47.22V42.29H40.312V49H37.496ZM58.2652 49.264C57.1652 49.264 56.1899 49.0293 55.3392 48.56C54.4885 48.0907 53.8212 47.4307 53.3372 46.58C52.8532 45.7293 52.6112 44.7467 52.6112 43.632C52.6112 42.5027 52.8459 41.498 53.3152 40.618C53.7992 39.738 54.4592 39.056 55.2952 38.572C56.1459 38.0733 57.1432 37.824 58.2872 37.824C59.3579 37.824 60.3039 38.0587 61.1252 38.528C61.9465 38.9973 62.5845 39.6427 63.0392 40.464C63.5085 41.2707 63.7432 42.1727 63.7432 43.17C63.7432 43.3313 63.7359 43.5 63.7212 43.676C63.7212 43.852 63.7139 44.0353 63.6992 44.226H55.4052C55.4639 45.0767 55.7572 45.744 56.2852 46.228C56.8279 46.712 57.4805 46.954 58.2432 46.954C58.8152 46.954 59.2919 46.8293 59.6732 46.58C60.0692 46.316 60.3625 45.9787 60.5532 45.568H63.4132C63.2079 46.2573 62.8632 46.888 62.3792 47.46C61.9099 48.0173 61.3232 48.4573 60.6192 48.78C59.9299 49.1027 59.1452 49.264 58.2652 49.264ZM58.2872 40.112C57.5979 40.112 56.9892 40.31 56.4612 40.706C55.9332 41.0873 55.5959 41.674 55.4492 42.466H60.8832C60.8392 41.7473 60.5752 41.1753 60.0912 40.75C59.6072 40.3247 59.0059 40.112 58.2872 40.112ZM66.1116 49V33.16H68.9276V49H66.1116ZM71.805 49V33.16H74.621V49H71.805ZM82.7344 49.264C81.6784 49.264 80.725 49.022 79.8744 48.538C79.0384 48.054 78.371 47.3867 77.8724 46.536C77.3884 45.6707 77.1464 44.6733 77.1464 43.544C77.1464 42.4147 77.3957 41.4247 77.8944 40.574C78.393 39.7087 79.0604 39.034 79.8964 38.55C80.747 38.066 81.7004 37.824 82.7564 37.824C83.7977 37.824 84.7364 38.066 85.5724 38.55C86.423 39.034 87.0904 39.7087 87.5744 40.574C88.073 41.4247 88.3224 42.4147 88.3224 43.544C88.3224 44.6733 88.073 45.6707 87.5744 46.536C87.0904 47.3867 86.423 48.054 85.5724 48.538C84.7217 49.022 83.7757 49.264 82.7344 49.264ZM82.7344 46.822C83.4677 46.822 84.1057 46.5507 84.6484 46.008C85.191 45.4507 85.4624 44.6293 85.4624 43.544C85.4624 42.4587 85.191 41.6447 84.6484 41.102C84.1057 40.5447 83.475 40.266 82.7564 40.266C82.0084 40.266 81.363 40.5447 80.8204 41.102C80.2924 41.6447 80.0284 42.4587 80.0284 43.544C80.0284 44.6293 80.2924 45.4507 80.8204 46.008C81.363 46.5507 82.001 46.822 82.7344 46.822ZM89.7182 51.552L90.9722 46.074H93.7002L91.5662 51.552H89.7182ZM101.174 49V33.16H103.99V39.76C104.357 39.1587 104.848 38.6893 105.464 38.352C106.095 38 106.813 37.824 107.62 37.824C108.969 37.824 110.011 38.2493 110.744 39.1C111.492 39.9507 111.866 41.1973 111.866 42.84V49H109.072V43.104C109.072 42.1653 108.881 41.4467 108.5 40.948C108.133 40.4493 107.547 40.2 106.74 40.2C105.948 40.2 105.288 40.4787 104.76 41.036C104.247 41.5933 103.99 42.3707 103.99 43.368V49H101.174ZM119.795 49.264C118.739 49.264 117.786 49.022 116.935 48.538C116.099 48.054 115.432 47.3867 114.933 46.536C114.449 45.6707 114.207 44.6733 114.207 43.544C114.207 42.4147 114.456 41.4247 114.955 40.574C115.454 39.7087 116.121 39.034 116.957 38.55C117.808 38.066 118.761 37.824 119.817 37.824C120.858 37.824 121.797 38.066 122.633 38.55C123.484 39.034 124.151 39.7087 124.635 40.574C125.134 41.4247 125.383 42.4147 125.383 43.544C125.383 44.6733 125.134 45.6707 124.635 46.536C124.151 47.3867 123.484 48.054 122.633 48.538C121.782 49.022 120.836 49.264 119.795 49.264ZM119.795 46.822C120.528 46.822 121.166 46.5507 121.709 46.008C122.252 45.4507 122.523 44.6293 122.523 43.544C122.523 42.4587 122.252 41.6447 121.709 41.102C121.166 40.5447 120.536 40.266 119.817 40.266C119.069 40.266 118.424 40.5447 117.881 41.102C117.353 41.6447 117.089 42.4587 117.089 43.544C117.089 44.6293 117.353 45.4507 117.881 46.008C118.424 46.5507 119.062 46.822 119.795 46.822ZM129.648 49L126.458 38.088H129.252L131.144 45.942L133.344 38.088H136.468L138.668 45.942L140.582 38.088H143.376L140.164 49H137.238L134.906 40.838L132.574 49H129.648ZM155.741 49.264C154.626 49.264 153.644 49.022 152.793 48.538C151.942 48.054 151.268 47.3793 150.769 46.514C150.285 45.6487 150.043 44.6587 150.043 43.544C150.043 42.4293 150.285 41.4393 150.769 40.574C151.268 39.7087 151.942 39.034 152.793 38.55C153.644 38.066 154.626 37.824 155.741 37.824C157.134 37.824 158.308 38.1907 159.261 38.924C160.214 39.6427 160.823 40.64 161.087 41.916H158.117C157.97 41.388 157.677 40.9773 157.237 40.684C156.812 40.376 156.306 40.222 155.719 40.222C154.942 40.222 154.282 40.5153 153.739 41.102C153.196 41.6887 152.925 42.5027 152.925 43.544C152.925 44.5853 153.196 45.3993 153.739 45.986C154.282 46.5727 154.942 46.866 155.719 46.866C156.306 46.866 156.812 46.7193 157.237 46.426C157.677 46.1327 157.97 45.7147 158.117 45.172H161.087C160.823 46.404 160.214 47.394 159.261 48.142C158.308 48.89 157.134 49.264 155.741 49.264ZM167.348 49.264C166.41 49.264 165.64 49.1173 165.038 48.824C164.437 48.516 163.99 48.1127 163.696 47.614C163.403 47.1153 163.256 46.5653 163.256 45.964C163.256 44.952 163.652 44.1307 164.444 43.5C165.236 42.8693 166.424 42.554 168.008 42.554H170.78V42.29C170.78 41.542 170.568 40.992 170.142 40.64C169.717 40.288 169.189 40.112 168.558 40.112C167.986 40.112 167.488 40.2513 167.062 40.53C166.637 40.794 166.373 41.19 166.27 41.718H163.52C163.594 40.926 163.858 40.2367 164.312 39.65C164.782 39.0633 165.383 38.616 166.116 38.308C166.85 37.9853 167.671 37.824 168.58 37.824C170.135 37.824 171.36 38.2127 172.254 38.99C173.149 39.7673 173.596 40.8673 173.596 42.29V49H171.198L170.934 47.24C170.612 47.8267 170.157 48.3107 169.57 48.692C168.998 49.0733 168.258 49.264 167.348 49.264ZM167.986 47.064C168.793 47.064 169.416 46.8 169.856 46.272C170.311 45.744 170.597 45.0913 170.714 44.314H168.316C167.568 44.314 167.033 44.4533 166.71 44.732C166.388 44.996 166.226 45.326 166.226 45.722C166.226 46.1473 166.388 46.4773 166.71 46.712C167.033 46.9467 167.458 47.064 167.986 47.064ZM176.284 49V38.088H178.77L178.99 39.936C179.327 39.2907 179.811 38.7773 180.442 38.396C181.087 38.0147 181.842 37.824 182.708 37.824C184.057 37.824 185.106 38.2493 185.854 39.1C186.602 39.9507 186.976 41.1973 186.976 42.84V49H184.16V43.104C184.16 42.1653 183.969 41.4467 183.588 40.948C183.206 40.4493 182.612 40.2 181.806 40.2C181.014 40.2 180.361 40.4787 179.848 41.036C179.349 41.5933 179.1 42.3707 179.1 43.368V49H176.284ZM197.044 49L193.854 38.088H196.648L198.54 45.942L200.74 38.088H203.864L206.064 45.942L207.978 38.088H210.772L207.56 49H204.634L202.302 40.838L199.97 49H197.044ZM217.464 49.264C216.364 49.264 215.389 49.0293 214.538 48.56C213.688 48.0907 213.02 47.4307 212.536 46.58C212.052 45.7293 211.81 44.7467 211.81 43.632C211.81 42.5027 212.045 41.498 212.514 40.618C212.998 39.738 213.658 39.056 214.494 38.572C215.345 38.0733 216.342 37.824 217.486 37.824C218.557 37.824 219.503 38.0587 220.324 38.528C221.146 38.9973 221.784 39.6427 222.238 40.464C222.708 41.2707 222.942 42.1727 222.942 43.17C222.942 43.3313 222.935 43.5 222.92 43.676C222.92 43.852 222.913 44.0353 222.898 44.226H214.604C214.663 45.0767 214.956 45.744 215.484 46.228C216.027 46.712 216.68 46.954 217.442 46.954C218.014 46.954 218.491 46.8293 218.872 46.58C219.268 46.316 219.562 45.9787 219.752 45.568H222.612C222.407 46.2573 222.062 46.888 221.578 47.46C221.109 48.0173 220.522 48.4573 219.818 48.78C219.129 49.1027 218.344 49.264 217.464 49.264ZM217.486 40.112C216.797 40.112 216.188 40.31 215.66 40.706C215.132 41.0873 214.795 41.674 214.648 42.466H220.082C220.038 41.7473 219.774 41.1753 219.29 40.75C218.806 40.3247 218.205 40.112 217.486 40.112ZM230.553 49V33.16H233.369V39.76C233.736 39.1587 234.227 38.6893 234.843 38.352C235.474 38 236.192 37.824 236.999 37.824C238.348 37.824 239.39 38.2493 240.123 39.1C240.871 39.9507 241.245 41.1973 241.245 42.84V49H238.451V43.104C238.451 42.1653 238.26 41.4467 237.879 40.948C237.512 40.4493 236.926 40.2 236.119 40.2C235.327 40.2 234.667 40.4787 234.139 41.036C233.626 41.5933 233.369 42.3707 233.369 43.368V49H230.553ZM249.24 49.264C248.14 49.264 247.164 49.0293 246.314 48.56C245.463 48.0907 244.796 47.4307 244.312 46.58C243.828 45.7293 243.586 44.7467 243.586 43.632C243.586 42.5027 243.82 41.498 244.29 40.618C244.774 39.738 245.434 39.056 246.27 38.572C247.12 38.0733 248.118 37.824 249.262 37.824C250.332 37.824 251.278 38.0587 252.1 38.528C252.921 38.9973 253.559 39.6427 254.014 40.464C254.483 41.2707 254.718 42.1727 254.718 43.17C254.718 43.3313 254.71 43.5 254.696 43.676C254.696 43.852 254.688 44.0353 254.674 44.226H246.38C246.438 45.0767 246.732 45.744 247.26 46.228C247.802 46.712 248.455 46.954 249.218 46.954C249.79 46.954 250.266 46.8293 250.648 46.58C251.044 46.316 251.337 45.9787 251.528 45.568H254.388C254.182 46.2573 253.838 46.888 253.354 47.46C252.884 48.0173 252.298 48.4573 251.594 48.78C250.904 49.1027 250.12 49.264 249.24 49.264ZM249.262 40.112C248.572 40.112 247.964 40.31 247.436 40.706C246.908 41.0873 246.57 41.674 246.424 42.466H251.858C251.814 41.7473 251.55 41.1753 251.066 40.75C250.582 40.3247 249.98 40.112 249.262 40.112ZM257.086 49V33.16H259.902V49H257.086ZM262.78 53.84V38.088H265.288L265.596 39.65C265.948 39.166 266.41 38.7407 266.982 38.374C267.568 38.0073 268.324 37.824 269.248 37.824C270.274 37.824 271.191 38.0733 271.998 38.572C272.804 39.0707 273.442 39.7527 273.912 40.618C274.381 41.4833 274.616 42.466 274.616 43.566C274.616 44.666 274.381 45.6487 273.912 46.514C273.442 47.3647 272.804 48.0393 271.998 48.538C271.191 49.022 270.274 49.264 269.248 49.264C268.426 49.264 267.708 49.11 267.092 48.802C266.476 48.494 265.977 48.0613 265.596 47.504V53.84H262.78ZM268.654 46.8C269.548 46.8 270.289 46.4993 270.876 45.898C271.462 45.2967 271.756 44.5193 271.756 43.566C271.756 42.6127 271.462 41.828 270.876 41.212C270.289 40.596 269.548 40.288 268.654 40.288C267.744 40.288 266.996 40.596 266.41 41.212C265.838 41.8133 265.552 42.5907 265.552 43.544C265.552 44.4973 265.838 45.282 266.41 45.898C266.996 46.4993 267.744 46.8 268.654 46.8ZM283.737 53.84L286.267 48.274H285.607L281.361 38.088H284.419L287.477 45.766L290.667 38.088H293.659L286.729 53.84H283.737ZM299.791 49.264C298.735 49.264 297.782 49.022 296.931 48.538C296.095 48.054 295.428 47.3867 294.929 46.536C294.445 45.6707 294.203 44.6733 294.203 43.544C294.203 42.4147 294.452 41.4247 294.951 40.574C295.45 39.7087 296.117 39.034 296.953 38.55C297.804 38.066 298.757 37.824 299.813 37.824C300.854 37.824 301.793 38.066 302.629 38.55C303.48 39.034 304.147 39.7087 304.631 40.574C305.13 41.4247 305.379 42.4147 305.379 43.544C305.379 44.6733 305.13 45.6707 304.631 46.536C304.147 47.3867 303.48 48.054 302.629 48.538C301.778 49.022 300.832 49.264 299.791 49.264ZM299.791 46.822C300.524 46.822 301.162 46.5507 301.705 46.008C302.248 45.4507 302.519 44.6293 302.519 43.544C302.519 42.4587 302.248 41.6447 301.705 41.102C301.162 40.5447 300.532 40.266 299.813 40.266C299.065 40.266 298.42 40.5447 297.877 41.102C297.349 41.6447 297.085 42.4587 297.085 43.544C297.085 44.6293 297.349 45.4507 297.877 46.008C298.42 46.5507 299.058 46.822 299.791 46.822ZM318.413 38.088V49H315.927L315.707 47.152C315.369 47.7973 314.878 48.3107 314.233 48.692C313.602 49.0733 312.854 49.264 311.989 49.264C310.639 49.264 309.591 48.8387 308.843 47.988C308.095 47.1373 307.721 45.8907 307.721 44.248V38.088H310.537V43.984C310.537 44.9227 310.727 45.6413 311.109 46.14C311.49 46.6387 312.084 46.888 312.891 46.888C313.683 46.888 314.328 46.6093 314.827 46.052C315.34 45.4947 315.597 44.7173 315.597 43.72V38.088H318.413ZM322.866 44.204L322.778 40.574H323.79C324.538 40.574 325.22 40.508 325.836 40.376C326.452 40.244 326.943 39.9873 327.31 39.606C327.676 39.2247 327.86 38.6673 327.86 37.934C327.86 37.23 327.647 36.68 327.222 36.284C326.796 35.8733 326.232 35.668 325.528 35.668C324.794 35.668 324.222 35.8733 323.812 36.284C323.401 36.68 323.196 37.2227 323.196 37.912H320.534C320.519 37.032 320.71 36.2473 321.106 35.558C321.502 34.8687 322.074 34.326 322.822 33.93C323.584 33.534 324.494 33.336 325.55 33.336C326.532 33.336 327.398 33.5193 328.146 33.886C328.908 34.2527 329.502 34.7807 329.928 35.47C330.368 36.1447 330.588 36.9733 330.588 37.956C330.588 38.968 330.36 39.804 329.906 40.464C329.466 41.124 328.857 41.6153 328.08 41.938C327.317 42.2607 326.43 42.4293 325.418 42.444L325.352 44.204H322.866ZM324.12 49.154C323.606 49.154 323.181 48.9927 322.844 48.67C322.521 48.3473 322.36 47.9587 322.36 47.504C322.36 47.0347 322.521 46.6387 322.844 46.316C323.181 45.9933 323.606 45.832 324.12 45.832C324.633 45.832 325.051 45.9933 325.374 46.316C325.696 46.6387 325.858 47.0347 325.858 47.504C325.858 47.9587 325.696 48.3473 325.374 48.67C325.051 48.9927 324.633 49.154 324.12 49.154Z" fill="white"/>
<path d="M153.496 129V113.6H156.312V120.002H163.22V113.6H166.036V129H163.22V122.29H156.312V129H153.496ZM174.265 129.264C173.165 129.264 172.19 129.029 171.339 128.56C170.489 128.091 169.821 127.431 169.337 126.58C168.853 125.729 168.611 124.747 168.611 123.632C168.611 122.503 168.846 121.498 169.315 120.618C169.799 119.738 170.459 119.056 171.295 118.572C172.146 118.073 173.143 117.824 174.287 117.824C175.358 117.824 176.304 118.059 177.125 118.528C177.947 118.997 178.585 119.643 179.039 120.464C179.509 121.271 179.743 122.173 179.743 123.17C179.743 123.331 179.736 123.5 179.721 123.676C179.721 123.852 179.714 124.035 179.699 124.226H171.405C171.464 125.077 171.757 125.744 172.285 126.228C172.828 126.712 173.481 126.954 174.243 126.954C174.815 126.954 175.292 126.829 175.673 126.58C176.069 126.316 176.363 125.979 176.553 125.568H179.413C179.208 126.257 178.863 126.888 178.379 127.46C177.91 128.017 177.323 128.457 176.619 128.78C175.93 129.103 175.145 129.264 174.265 129.264ZM174.287 120.112C173.598 120.112 172.989 120.31 172.461 120.706C171.933 121.087 171.596 121.674 171.449 122.466H176.883C176.839 121.747 176.575 121.175 176.091 120.75C175.607 120.325 175.006 120.112 174.287 120.112ZM182.112 129V113.16H184.928V129H182.112ZM187.805 129V113.16H190.621V129H187.805ZM198.734 129.264C197.678 129.264 196.725 129.022 195.874 128.538C195.038 128.054 194.371 127.387 193.872 126.536C193.388 125.671 193.146 124.673 193.146 123.544C193.146 122.415 193.396 121.425 193.894 120.574C194.393 119.709 195.06 119.034 195.896 118.55C196.747 118.066 197.7 117.824 198.756 117.824C199.798 117.824 200.736 118.066 201.572 118.55C202.423 119.034 203.09 119.709 203.574 120.574C204.073 121.425 204.322 122.415 204.322 123.544C204.322 124.673 204.073 125.671 203.574 126.536C203.09 127.387 202.423 128.054 201.572 128.538C200.722 129.022 199.776 129.264 198.734 129.264ZM198.734 126.822C199.468 126.822 200.106 126.551 200.648 126.008C201.191 125.451 201.462 124.629 201.462 123.544C201.462 122.459 201.191 121.645 200.648 121.102C200.106 120.545 199.475 120.266 198.756 120.266C198.008 120.266 197.363 120.545 196.82 121.102C196.292 121.645 196.028 122.459 196.028 123.544C196.028 124.629 196.292 125.451 196.82 126.008C197.363 126.551 198.001 126.822 198.734 126.822ZM205.718 131.552L206.972 126.074H209.7L207.566 131.552H205.718ZM217.174 129V113.16H219.99V119.76C220.357 119.159 220.848 118.689 221.464 118.352C222.095 118 222.813 117.824 223.62 117.824C224.969 117.824 226.011 118.249 226.744 119.1C227.492 119.951 227.866 121.197 227.866 122.84V129H225.072V123.104C225.072 122.165 224.881 121.447 224.5 120.948C224.133 120.449 223.547 120.2 222.74 120.2C221.948 120.2 221.288 120.479 220.76 121.036C220.247 121.593 219.99 122.371 219.99 123.368V129H217.174ZM235.795 129.264C234.739 129.264 233.786 129.022 232.935 128.538C232.099 128.054 231.432 127.387 230.933 126.536C230.449 125.671 230.207 124.673 230.207 123.544C230.207 122.415 230.456 121.425 230.955 120.574C231.454 119.709 232.121 119.034 232.957 118.55C233.808 118.066 234.761 117.824 235.817 117.824C236.858 117.824 237.797 118.066 238.633 118.55C239.484 119.034 240.151 119.709 240.635 120.574C241.134 121.425 241.383 122.415 241.383 123.544C241.383 124.673 241.134 125.671 240.635 126.536C240.151 127.387 239.484 128.054 238.633 128.538C237.782 129.022 236.836 129.264 235.795 129.264ZM235.795 126.822C236.528 126.822 237.166 126.551 237.709 126.008C238.252 125.451 238.523 124.629 238.523 123.544C238.523 122.459 238.252 121.645 237.709 121.102C237.166 120.545 236.536 120.266 235.817 120.266C235.069 120.266 234.424 120.545 233.881 121.102C233.353 121.645 233.089 122.459 233.089 123.544C233.089 124.629 233.353 125.451 233.881 126.008C234.424 126.551 235.062 126.822 235.795 126.822ZM245.648 129L242.458 118.088H245.252L247.144 125.942L249.344 118.088H252.468L254.668 125.942L256.582 118.088H259.376L256.164 129H253.238L250.906 120.838L248.574 129H245.648ZM271.741 129.264C270.626 129.264 269.644 129.022 268.793 128.538C267.942 128.054 267.268 127.379 266.769 126.514C266.285 125.649 266.043 124.659 266.043 123.544C266.043 122.429 266.285 121.439 266.769 120.574C267.268 119.709 267.942 119.034 268.793 118.55C269.644 118.066 270.626 117.824 271.741 117.824C273.134 117.824 274.308 118.191 275.261 118.924C276.214 119.643 276.823 120.64 277.087 121.916H274.117C273.97 121.388 273.677 120.977 273.237 120.684C272.812 120.376 272.306 120.222 271.719 120.222C270.942 120.222 270.282 120.515 269.739 121.102C269.196 121.689 268.925 122.503 268.925 123.544C268.925 124.585 269.196 125.399 269.739 125.986C270.282 126.573 270.942 126.866 271.719 126.866C272.306 126.866 272.812 126.719 273.237 126.426C273.677 126.133 273.97 125.715 274.117 125.172H277.087C276.823 126.404 276.214 127.394 275.261 128.142C274.308 128.89 273.134 129.264 271.741 129.264ZM283.348 129.264C282.41 129.264 281.64 129.117 281.038 128.824C280.437 128.516 279.99 128.113 279.696 127.614C279.403 127.115 279.256 126.565 279.256 125.964C279.256 124.952 279.652 124.131 280.444 123.5C281.236 122.869 282.424 122.554 284.008 122.554H286.78V122.29C286.78 121.542 286.568 120.992 286.142 120.64C285.717 120.288 285.189 120.112 284.558 120.112C283.986 120.112 283.488 120.251 283.062 120.53C282.637 120.794 282.373 121.19 282.27 121.718H279.52C279.594 120.926 279.858 120.237 280.312 119.65C280.782 119.063 281.383 118.616 282.116 118.308C282.85 117.985 283.671 117.824 284.58 117.824C286.135 117.824 287.36 118.213 288.254 118.99C289.149 119.767 289.596 120.867 289.596 122.29V129H287.198L286.934 127.24C286.612 127.827 286.157 128.311 285.57 128.692C284.998 129.073 284.258 129.264 283.348 129.264ZM283.986 127.064C284.793 127.064 285.416 126.8 285.856 126.272C286.311 125.744 286.597 125.091 286.714 124.314H284.316C283.568 124.314 283.033 124.453 282.71 124.732C282.388 124.996 282.226 125.326 282.226 125.722C282.226 126.147 282.388 126.477 282.71 126.712C283.033 126.947 283.458 127.064 283.986 127.064ZM292.284 129V118.088H294.77L294.99 119.936C295.327 119.291 295.811 118.777 296.442 118.396C297.087 118.015 297.842 117.824 298.708 117.824C300.057 117.824 301.106 118.249 301.854 119.1C302.602 119.951 302.976 121.197 302.976 122.84V129H300.16V123.104C300.16 122.165 299.969 121.447 299.588 120.948C299.206 120.449 298.612 120.2 297.806 120.2C297.014 120.2 296.361 120.479 295.848 121.036C295.349 121.593 295.1 122.371 295.1 123.368V129H292.284ZM313.044 129L309.854 118.088H312.648L314.54 125.942L316.74 118.088H319.864L322.064 125.942L323.978 118.088H326.772L323.56 129H320.634L318.302 120.838L315.97 129H313.044ZM333.464 129.264C332.364 129.264 331.389 129.029 330.538 128.56C329.688 128.091 329.02 127.431 328.536 126.58C328.052 125.729 327.81 124.747 327.81 123.632C327.81 122.503 328.045 121.498 328.514 120.618C328.998 119.738 329.658 119.056 330.494 118.572C331.345 118.073 332.342 117.824 333.486 117.824C334.557 117.824 335.503 118.059 336.324 118.528C337.146 118.997 337.784 119.643 338.238 120.464C338.708 121.271 338.942 122.173 338.942 123.17C338.942 123.331 338.935 123.5 338.92 123.676C338.92 123.852 338.913 124.035 338.898 124.226H330.604C330.663 125.077 330.956 125.744 331.484 126.228C332.027 126.712 332.68 126.954 333.442 126.954C334.014 126.954 334.491 126.829 334.872 126.58C335.268 126.316 335.562 125.979 335.752 125.568H338.612C338.407 126.257 338.062 126.888 337.578 127.46C337.109 128.017 336.522 128.457 335.818 128.78C335.129 129.103 334.344 129.264 333.464 129.264ZM333.486 120.112C332.797 120.112 332.188 120.31 331.66 120.706C331.132 121.087 330.795 121.674 330.648 122.466H336.082C336.038 121.747 335.774 121.175 335.29 120.75C334.806 120.325 334.205 120.112 333.486 120.112ZM346.553 129V113.16H349.369V119.76C349.736 119.159 350.227 118.689 350.843 118.352C351.474 118 352.192 117.824 352.999 117.824C354.348 117.824 355.39 118.249 356.123 119.1C356.871 119.951 357.245 121.197 357.245 122.84V129H354.451V123.104C354.451 122.165 354.26 121.447 353.879 120.948C353.512 120.449 352.926 120.2 352.119 120.2C351.327 120.2 350.667 120.479 350.139 121.036C349.626 121.593 349.369 122.371 349.369 123.368V129H346.553ZM365.24 129.264C364.14 129.264 363.164 129.029 362.314 128.56C361.463 128.091 360.796 127.431 360.312 126.58C359.828 125.729 359.586 124.747 359.586 123.632C359.586 122.503 359.82 121.498 360.29 120.618C360.774 119.738 361.434 119.056 362.27 118.572C363.12 118.073 364.118 117.824 365.262 117.824C366.332 117.824 367.278 118.059 368.1 118.528C368.921 118.997 369.559 119.643 370.014 120.464C370.483 121.271 370.718 122.173 370.718 123.17C370.718 123.331 370.71 123.5 370.696 123.676C370.696 123.852 370.688 124.035 370.674 124.226H362.38C362.438 125.077 362.732 125.744 363.26 126.228C363.802 126.712 364.455 126.954 365.218 126.954C365.79 126.954 366.266 126.829 366.648 126.58C367.044 126.316 367.337 125.979 367.528 125.568H370.388C370.182 126.257 369.838 126.888 369.354 127.46C368.884 128.017 368.298 128.457 367.594 128.78C366.904 129.103 366.12 129.264 365.24 129.264ZM365.262 120.112C364.572 120.112 363.964 120.31 363.436 120.706C362.908 121.087 362.57 121.674 362.424 122.466H367.858C367.814 121.747 367.55 121.175 367.066 120.75C366.582 120.325 365.98 120.112 365.262 120.112ZM373.086 129V113.16H375.902V129H373.086ZM378.78 133.84V118.088H381.288L381.596 119.65C381.948 119.166 382.41 118.741 382.982 118.374C383.568 118.007 384.324 117.824 385.248 117.824C386.274 117.824 387.191 118.073 387.998 118.572C388.804 119.071 389.442 119.753 389.912 120.618C390.381 121.483 390.616 122.466 390.616 123.566C390.616 124.666 390.381 125.649 389.912 126.514C389.442 127.365 388.804 128.039 387.998 128.538C387.191 129.022 386.274 129.264 385.248 129.264C384.426 129.264 383.708 129.11 383.092 128.802C382.476 128.494 381.977 128.061 381.596 127.504V133.84H378.78ZM384.654 126.8C385.548 126.8 386.289 126.499 386.876 125.898C387.462 125.297 387.756 124.519 387.756 123.566C387.756 122.613 387.462 121.828 386.876 121.212C386.289 120.596 385.548 120.288 384.654 120.288C383.744 120.288 382.996 120.596 382.41 121.212C381.838 121.813 381.552 122.591 381.552 123.544C381.552 124.497 381.838 125.282 382.41 125.898C382.996 126.499 383.744 126.8 384.654 126.8ZM399.737 133.84L402.267 128.274H401.607L397.361 118.088H400.419L403.477 125.766L406.667 118.088H409.659L402.729 133.84H399.737ZM415.791 129.264C414.735 129.264 413.782 129.022 412.931 128.538C412.095 128.054 411.428 127.387 410.929 126.536C410.445 125.671 410.203 124.673 410.203 123.544C410.203 122.415 410.452 121.425 410.951 120.574C411.45 119.709 412.117 119.034 412.953 118.55C413.804 118.066 414.757 117.824 415.813 117.824C416.854 117.824 417.793 118.066 418.629 118.55C419.48 119.034 420.147 119.709 420.631 120.574C421.13 121.425 421.379 122.415 421.379 123.544C421.379 124.673 421.13 125.671 420.631 126.536C420.147 127.387 419.48 128.054 418.629 128.538C417.778 129.022 416.832 129.264 415.791 129.264ZM415.791 126.822C416.524 126.822 417.162 126.551 417.705 126.008C418.248 125.451 418.519 124.629 418.519 123.544C418.519 122.459 418.248 121.645 417.705 121.102C417.162 120.545 416.532 120.266 415.813 120.266C415.065 120.266 414.42 120.545 413.877 121.102C413.349 121.645 413.085 122.459 413.085 123.544C413.085 124.629 413.349 125.451 413.877 126.008C414.42 126.551 415.058 126.822 415.791 126.822ZM434.413 118.088V129H431.927L431.707 127.152C431.369 127.797 430.878 128.311 430.233 128.692C429.602 129.073 428.854 129.264 427.989 129.264C426.639 129.264 425.591 128.839 424.843 127.988C424.095 127.137 423.721 125.891 423.721 124.248V118.088H426.537V123.984C426.537 124.923 426.727 125.641 427.109 126.14C427.49 126.639 428.084 126.888 428.891 126.888C429.683 126.888 430.328 126.609 430.827 126.052C431.34 125.495 431.597 124.717 431.597 123.72V118.088H434.413ZM438.866 124.204L438.778 120.574H439.79C440.538 120.574 441.22 120.508 441.836 120.376C442.452 120.244 442.943 119.987 443.31 119.606C443.676 119.225 443.86 118.667 443.86 117.934C443.86 117.23 443.647 116.68 443.222 116.284C442.796 115.873 442.232 115.668 441.528 115.668C440.794 115.668 440.222 115.873 439.812 116.284C439.401 116.68 439.196 117.223 439.196 117.912H436.534C436.519 117.032 436.71 116.247 437.106 115.558C437.502 114.869 438.074 114.326 438.822 113.93C439.584 113.534 440.494 113.336 441.55 113.336C442.532 113.336 443.398 113.519 444.146 113.886C444.908 114.253 445.502 114.781 445.928 115.47C446.368 116.145 446.588 116.973 446.588 117.956C446.588 118.968 446.36 119.804 445.906 120.464C445.466 121.124 444.857 121.615 444.08 121.938C443.317 122.261 442.43 122.429 441.418 122.444L441.352 124.204H438.866ZM440.12 129.154C439.606 129.154 439.181 128.993 438.844 128.67C438.521 128.347 438.36 127.959 438.36 127.504C438.36 127.035 438.521 126.639 438.844 126.316C439.181 125.993 439.606 125.832 440.12 125.832C440.633 125.832 441.051 125.993 441.374 126.316C441.696 126.639 441.858 127.035 441.858 127.504C441.858 127.959 441.696 128.347 441.374 128.67C441.051 128.993 440.633 129.154 440.12 129.154Z" fill="#1B1B1B"/>
</svg>
