<svg width="216" height="48" viewBox="0 0 216 48" fill="none" xmlns="http://www.w3.org/2000/svg">
<path d="M35.38 35V10.5H40.7L48.505 26.04L56.205 10.5H61.525V35H57.045V18.095L50.22 31.5H46.685L39.86 18.095V35H35.38ZM68.3434 42.7L72.3684 33.845H71.3184L64.5634 17.64H69.4284L74.2934 29.855L79.3684 17.64H84.1284L73.1034 42.7H68.3434ZM92.8672 35V14.105H85.7272V10.5H104.522V14.105H97.3472V35H92.8672ZM106.027 35V17.64H110.017L110.437 20.895C111.067 19.775 111.919 18.8883 112.992 18.235C114.089 17.5583 115.372 17.22 116.842 17.22V21.945H115.582C114.602 21.945 113.727 22.0967 112.957 22.4C112.187 22.7033 111.58 23.2283 111.137 23.975C110.717 24.7217 110.507 25.76 110.507 27.09V35H106.027ZM125.889 35.42C124.396 35.42 123.171 35.1867 122.214 34.72C121.257 34.23 120.546 33.5883 120.079 32.795C119.612 32.0017 119.379 31.1267 119.379 30.17C119.379 28.56 120.009 27.2533 121.269 26.25C122.529 25.2467 124.419 24.745 126.939 24.745H131.349V24.325C131.349 23.135 131.011 22.26 130.334 21.7C129.657 21.14 128.817 20.86 127.814 20.86C126.904 20.86 126.111 21.0817 125.434 21.525C124.757 21.945 124.337 22.575 124.174 23.415H119.799C119.916 22.155 120.336 21.0583 121.059 20.125C121.806 19.1917 122.762 18.48 123.929 17.99C125.096 17.4767 126.402 17.22 127.849 17.22C130.322 17.22 132.271 17.8383 133.694 19.075C135.117 20.3117 135.829 22.0617 135.829 24.325V35H132.014L131.594 32.2C131.081 33.1333 130.357 33.9033 129.424 34.51C128.514 35.1167 127.336 35.42 125.889 35.42ZM126.904 31.92C128.187 31.92 129.179 31.5 129.879 30.66C130.602 29.82 131.057 28.7817 131.244 27.545H127.429C126.239 27.545 125.387 27.7667 124.874 28.21C124.361 28.63 124.104 29.155 124.104 29.785C124.104 30.4617 124.361 30.9867 124.874 31.36C125.387 31.7333 126.064 31.92 126.904 31.92ZM148.609 35.42C146.836 35.42 145.272 35.035 143.919 34.265C142.566 33.495 141.492 32.4217 140.699 31.045C139.929 29.6683 139.544 28.0933 139.544 26.32C139.544 24.5467 139.929 22.9717 140.699 21.595C141.492 20.2183 142.566 19.145 143.919 18.375C145.272 17.605 146.836 17.22 148.609 17.22C150.826 17.22 152.692 17.8033 154.209 18.97C155.726 20.1133 156.694 21.7 157.114 23.73H152.389C152.156 22.89 151.689 22.2367 150.989 21.77C150.312 21.28 149.507 21.035 148.574 21.035C147.337 21.035 146.287 21.5017 145.424 22.435C144.561 23.3683 144.129 24.6633 144.129 26.32C144.129 27.9767 144.561 29.2717 145.424 30.205C146.287 31.1383 147.337 31.605 148.574 31.605C149.507 31.605 150.312 31.3717 150.989 30.905C151.689 30.4383 152.156 29.7733 152.389 28.91H157.114C156.694 30.87 155.726 32.445 154.209 33.635C152.692 34.825 150.826 35.42 148.609 35.42ZM161.09 35V9.8H165.57V24.675L171.73 17.64H177.05L169.945 25.55L178.205 35H172.605L165.57 26.285V35H161.09ZM187.982 35.42C186.232 35.42 184.681 35.0467 183.327 34.3C181.974 33.5533 180.912 32.5033 180.142 31.15C179.372 29.7967 178.987 28.2333 178.987 26.46C178.987 24.6633 179.361 23.065 180.107 21.665C180.877 20.265 181.927 19.18 183.257 18.41C184.611 17.6167 186.197 17.22 188.017 17.22C189.721 17.22 191.226 17.5933 192.532 18.34C193.839 19.0867 194.854 20.1133 195.577 21.42C196.324 22.7033 196.697 24.1383 196.697 25.725C196.697 25.9817 196.686 26.25 196.662 26.53C196.662 26.81 196.651 27.1017 196.627 27.405H183.432C183.526 28.7583 183.992 29.82 184.832 30.59C185.696 31.36 186.734 31.745 187.947 31.745C188.857 31.745 189.616 31.5467 190.222 31.15C190.852 30.73 191.319 30.1933 191.622 29.54H196.172C195.846 30.6367 195.297 31.64 194.527 32.55C193.781 33.4367 192.847 34.1367 191.727 34.65C190.631 35.1633 189.382 35.42 187.982 35.42ZM188.017 20.86C186.921 20.86 185.952 21.175 185.112 21.805C184.272 22.4117 183.736 23.345 183.502 24.605H192.147C192.077 23.4617 191.657 22.5517 190.887 21.875C190.117 21.1983 189.161 20.86 188.017 20.86ZM200.465 35V17.64H204.455L204.875 20.895C205.505 19.775 206.357 18.8883 207.43 18.235C208.527 17.5583 209.81 17.22 211.28 17.22V21.945H210.02C209.04 21.945 208.165 22.0967 207.395 22.4C206.625 22.7033 206.019 23.2283 205.575 23.975C205.155 24.7217 204.945 25.76 204.945 27.09V35H200.465Z" fill="black"/>
<circle cx="18" cy="17" r="5" fill="#00D793"/>
<circle cx="18" cy="31" r="5" fill="#B2B6F8"/>
<circle cx="5" cy="24" r="5" fill="#656DF1"/>
<rect x="35" y="45" width="181" height="3" fill="#00D793"/>
</svg>
