<svg width="169" height="48" viewBox="0 0 169 48" fill="none" xmlns="http://www.w3.org/2000/svg">
<path d="M44.45 35.42C42.91 35.42 41.5567 35.175 40.39 34.685C39.2233 34.1717 38.29 33.4717 37.59 32.585C36.89 31.6983 36.47 30.6717 36.33 29.505H40.845C40.985 30.1817 41.3583 30.765 41.965 31.255C42.595 31.7217 43.4 31.955 44.38 31.955C45.36 31.955 46.0717 31.7567 46.515 31.36C46.9817 30.9633 47.215 30.5083 47.215 29.995C47.215 29.2483 46.8883 28.7467 46.235 28.49C45.5817 28.21 44.6717 27.9417 43.505 27.685C42.7583 27.5217 42 27.3233 41.23 27.09C40.46 26.8567 39.7483 26.565 39.095 26.215C38.465 25.8417 37.9517 25.375 37.555 24.815C37.1583 24.2317 36.96 23.52 36.96 22.68C36.96 21.14 37.5667 19.845 38.78 18.795C40.0167 17.745 41.7433 17.22 43.96 17.22C46.0133 17.22 47.6467 17.6983 48.86 18.655C50.0967 19.6117 50.8317 20.93 51.065 22.61H46.83C46.5733 21.3267 45.605 20.685 43.925 20.685C43.085 20.685 42.4317 20.8483 41.965 21.175C41.5217 21.5017 41.3 21.91 41.3 22.4C41.3 22.9133 41.6383 23.3217 42.315 23.625C42.9917 23.9283 43.89 24.2083 45.01 24.465C46.2233 24.745 47.3317 25.06 48.335 25.41C49.3617 25.7367 50.1783 26.2383 50.785 26.915C51.3917 27.5683 51.695 28.5133 51.695 29.75C51.7183 30.8233 51.4383 31.7917 50.855 32.655C50.2717 33.5183 49.4317 34.195 48.335 34.685C47.2383 35.175 45.9433 35.42 44.45 35.42ZM63.9937 35.42C62.3137 35.42 60.797 35.035 59.4437 34.265C58.1137 33.495 57.052 32.4333 56.2587 31.08C55.4887 29.7033 55.1037 28.1167 55.1037 26.32C55.1037 24.5233 55.5003 22.9483 56.2937 21.595C57.087 20.2183 58.1487 19.145 59.4787 18.375C60.832 17.605 62.3487 17.22 64.0287 17.22C65.6853 17.22 67.1787 17.605 68.5087 18.375C69.862 19.145 70.9237 20.2183 71.6937 21.595C72.487 22.9483 72.8837 24.5233 72.8837 26.32C72.8837 28.1167 72.487 29.7033 71.6937 31.08C70.9237 32.4333 69.862 33.495 68.5087 34.265C67.1553 35.035 65.6503 35.42 63.9937 35.42ZM63.9937 31.535C65.1603 31.535 66.1753 31.1033 67.0387 30.24C67.902 29.3533 68.3337 28.0467 68.3337 26.32C68.3337 24.5933 67.902 23.2983 67.0387 22.435C66.1753 21.5483 65.172 21.105 64.0287 21.105C62.8387 21.105 61.812 21.5483 60.9487 22.435C60.1087 23.2983 59.6887 24.5933 59.6887 26.32C59.6887 28.0467 60.1087 29.3533 60.9487 30.24C61.812 31.1033 62.827 31.535 63.9937 31.535ZM77.6943 35V21.385H75.3143V17.64H77.6943V15.61C77.6943 13.51 78.2193 12.0167 79.2693 11.13C80.3426 10.2433 81.7893 9.8 83.6093 9.8H85.5343V13.615H84.3093C83.5393 13.615 82.9909 13.7667 82.6643 14.07C82.3376 14.3733 82.1743 14.8867 82.1743 15.61V17.64H85.9193V21.385H82.1743V35H77.6943ZM97.2024 35C95.3824 35 93.924 34.5567 92.8274 33.67C91.7307 32.7833 91.1824 31.2083 91.1824 28.945V21.385H88.2074V17.64H91.1824L91.7074 12.985H95.6624V17.64H100.352V21.385H95.6624V28.98C95.6624 29.82 95.8374 30.4033 96.1874 30.73C96.5607 31.0333 97.1907 31.185 98.0774 31.185H100.247V35H97.2024ZM107.594 35L102.519 17.64H106.964L109.974 30.135L113.474 17.64H118.444L121.944 30.135L124.989 17.64H129.434L124.324 35H119.669L115.959 22.015L112.249 35H107.594ZM140.08 35.42C138.33 35.42 136.778 35.0467 135.425 34.3C134.072 33.5533 133.01 32.5033 132.24 31.15C131.47 29.7967 131.085 28.2333 131.085 26.46C131.085 24.6633 131.458 23.065 132.205 21.665C132.975 20.265 134.025 19.18 135.355 18.41C136.708 17.6167 138.295 17.22 140.115 17.22C141.818 17.22 143.323 17.5933 144.63 18.34C145.937 19.0867 146.952 20.1133 147.675 21.42C148.422 22.7033 148.795 24.1383 148.795 25.725C148.795 25.9817 148.783 26.25 148.76 26.53C148.76 26.81 148.748 27.1017 148.725 27.405H135.53C135.623 28.7583 136.09 29.82 136.93 30.59C137.793 31.36 138.832 31.745 140.045 31.745C140.955 31.745 141.713 31.5467 142.32 31.15C142.95 30.73 143.417 30.1933 143.72 29.54H148.27C147.943 30.6367 147.395 31.64 146.625 32.55C145.878 33.4367 144.945 34.1367 143.825 34.65C142.728 35.1633 141.48 35.42 140.08 35.42ZM140.115 20.86C139.018 20.86 138.05 21.175 137.21 21.805C136.37 22.4117 135.833 23.345 135.6 24.605H144.245C144.175 23.4617 143.755 22.5517 142.985 21.875C142.215 21.1983 141.258 20.86 140.115 20.86ZM152.563 35V17.64H156.553L156.973 20.895C157.603 19.775 158.455 18.8883 159.528 18.235C160.625 17.5583 161.908 17.22 163.378 17.22V21.945H162.118C161.138 21.945 160.263 22.0967 159.493 22.4C158.723 22.7033 158.116 23.2283 157.673 23.975C157.253 24.7217 157.043 25.76 157.043 27.09V35H152.563Z" fill="black"/>
<circle cx="20" cy="17" r="5" fill="#00D793"/>
<circle cx="20" cy="31" r="5" fill="#B2B6F8"/>
<circle cx="7" cy="24" r="5" fill="#656DF1"/>
<rect y="45" width="169" height="3" fill="#00D793"/>
</svg>
